<?xml version="1.0" encoding="utf-8"?>
<!-- Generator: Adobe Illustrator 23.0.0, SVG Export Plug-In . SVG Version: 6.00 Build 0)  -->
<svg version="1.1"
	 id="svg12" xmlns:cc="http://creativecommons.org/ns#" xmlns:dc="http://purl.org/dc/elements/1.1/" xmlns:inkscape="http://www.inkscape.org/namespaces/inkscape" xmlns:rdf="http://www.w3.org/1999/02/22-rdf-syntax-ns#" xmlns:sodipodi="http://sodipodi.sourceforge.net/DTD/sodipodi-0.dtd" xmlns:svg="http://www.w3.org/2000/svg"
	 xmlns="http://www.w3.org/2000/svg" xmlns:xlink="http://www.w3.org/1999/xlink" x="0px" y="0px" viewBox="0 0 81 18"
	 style="enable-background:new 0 0 81 18;" xml:space="preserve">
<style type="text/css">
	.st0{fill:#FFFFFF;}
</style>
<sodipodi:namedview  bordercolor="#666666" borderopacity="1" gridtolerance="10" guidetolerance="10" id="namedview14" inkscape:current-layer="svg12" inkscape:cx="41" inkscape:cy="9" inkscape:pageopacity="0" inkscape:pageshadow="2" inkscape:window-height="480" inkscape:window-maximized="0" inkscape:window-width="1156" inkscape:window-x="3138" inkscape:window-y="329" inkscape:zoom="3.4634146" objecttolerance="10" pagecolor="#ffffff" showgrid="false">
	</sodipodi:namedview>
<polygon class="st0" points="77.5,5.5 77.5,7.9 72,4.8 68.7,6.6 68.7,9.9 66.5,8.7 66.5,5.5 72,2.4 "/>
<polygon class="st0" points="75.5,7.6 77.5,8.7 77.5,12 72,15.1 66.5,12 66.5,9.6 72,12.7 75.5,10.9 "/>
<path class="st0" d="M8.5,1.4h7.2v3.9H8.5C6.1,5.3,4.9,7,4.9,9s1.2,3.7,3.6,3.7h7.2v3.9H8.5c-4.7,0-7.6-3.1-7.6-7.6S3.7,1.4,8.5,1.4
	z"/>
<path class="st0" d="M29.5,1.3h4v7.9c0,4.7-3.1,7.5-7.6,7.5c-4.4,0-7.6-2.8-7.6-7.5V1.3h4v7.9c0,2.3,1.7,3.6,3.6,3.6
	s3.6-1.2,3.6-3.6V1.3z"/>
<path class="st0" d="M54.7,1.4c-4.7,0-7.5,3.2-7.5,7.6c0,4.5,2.8,7.7,7.5,7.7h1.7v-4h-1.7c-2.4,0-3.5-1.7-3.5-3.7s1.2-3.6,3.5-3.6
	h3.8v5.2v2.1v4h4v-0.2v-3.8V5.4V2.1V1.4H54.7z"/>
<path class="st0" d="M74.4,7.4L72,6.1l-2.3,1.3v2.7l2.3,1.3l2.3-1.3L74.4,7.4L74.4,7.4z M72,7.8l0.9,0.5v1L72,9.8l-0.9-0.5v-1
	L72,7.8z"/>
<polygon class="st0" points="72,2.4 66.5,5.5 66.5,8.7 68.7,9.9 68.7,6.6 72,4.8 77.5,7.9 77.5,5.5 "/>
<polygon class="st0" points="75.5,7.6 75.5,10.9 72,12.7 66.5,9.6 66.5,12 72,15.1 77.5,12 77.5,8.7 "/>
<path class="st0" d="M46,1.4v4h-2.9c-2.3,0-3.5,1.6-3.5,3.6v7.7h-4V9c0-4.5,2.8-7.7,7.5-7.6C43.1,1.4,46,1.4,46,1.4z"/>
</svg>
